<svg width="1024" height="322" viewBox="-1.34613 -1.34613 151.079 47.5632" xmlns="http://www.w3.org/2000/svg" xmlns:xlink="http://www.w3.org/1999/xlink" id="svg2137" overflow="hidden"><defs id="defs2134"></defs><path d="M0.85483 43.3387C0.04838 42.9355 0 42.7097 0 41.1613 0 38.3064 0.2258 36.0161 0.29032 35.0968 0.35482 34.4677 0.46774 34.1774 0.74193 34.1774 1.08064 34.1774 1.14516 34.3548 1.14516 34.8064 1.14516 35.3226 1.14516 36.129 1.32258 36.9193 2.17741 41.1613 5.96774 42.7581 9.79032 42.7581 15.2903 42.7581 17.9839 38.8064 17.9839 35.1452 17.9839 31.1935 16.3226 28.9032 11.4032 24.8387L8.82258 22.7258C2.74193 17.7419 1.37096 14.1935 1.37096 10.3064 1.37096 4.17742 5.95161 0 13.2258 0 15.4516 0 17.1129 0.2258 18.5484 0.56451 19.629 0.79032 20.0968 0.85484 20.5484 0.85484 21.0161 0.85484 21.1129 0.96774 21.1129 1.25806 21.1129 1.54838 20.8871 3.43548 20.8871 7.32258 20.8871 8.24193 20.7742 8.64516 20.4839 8.64516 20.1452 8.64516 20.0806 8.35484 20.0322 7.90322 19.9678 7.20967 19.629 5.67742 19.2903 5.03225 18.9516 4.40322 17.4032 2 12.129 2 8.17741 2 5.08064 4.46774 5.08064 8.64516 5.08064 11.9032 6.56451 13.9677 12.0645 18.2581L13.6774 19.5161C20.4355 24.8387 22.0322 28.3871 22.0322 32.9677 22.0322 35.3226 21.1129 39.6613 17.1613 42.4677 14.6935 44.1774 11.6129 44.871 8.51612 44.871 5.8387 44.871 3.20967 44.4839 0.85483 43.3387ZM42.1774 29.9355C42.1774 34.629 42.1774 38.4677 42.4032 40.4677 42.5806 41.9032 42.8064 42.8064 44.3548 43.0484 45.0484 43.1613 46.1935 43.2742 46.6452 43.2742 46.9839 43.2742 47.0484 43.5 47.0484 43.6774 47.0484 43.9032 46.8226 44.0806 46.2419 44.0806 43.5 44.0806 40.2903 43.9032 40 43.9032 39.7742 43.9032 36.2742 44.0806 34.7903 44.0806 34.2097 44.0806 33.9839 43.9677 33.9839 43.6774 33.9839 43.5 34.0968 43.3387 34.3871 43.3387 34.8387 43.3387 35.4193 43.2258 35.871 43.1129 36.9032 42.8871 37.1935 41.9032 37.3548 40.4839 37.5806 38.4839 37.5806 34.6452 37.5806 29.9516L37.5806 9.5 30.3387 9.6129C27.1935 9.6774 25.9839 10.0161 25.2419 11.1613 24.6774 12.0161 24.6129 12.371 24.4355 12.7097 24.3226 13.1129 24.1452 13.1613 23.9193 13.1613 23.8064 13.1613 23.5806 13.0484 23.5806 12.7581 23.5806 12.2419 24.6129 7.88709 24.6613 7.48387 24.7742 7.19354 25 6.56451 25.1774 6.56451 25.5161 6.56451 26.0322 6.96774 27.4193 7.14516 28.8548 7.32258 30.7903 7.37096 31.371 7.37096L50.3871 7.37096C52.0484 7.37096 53.1935 7.25806 54 7.14516 54.7419 7.03225 55.2097 6.91935 55.4355 6.91935 55.6613 6.91935 55.6613 7.20967 55.6613 7.48387 55.6613 8.96774 55.4839 12.4677 55.4839 13.0323 55.4839 13.4355 55.2581 13.6613 55.0322 13.6613 54.8064 13.6613 54.6935 13.4839 54.629 12.8064L54.5645 12.2903C54.3871 10.8064 53.3065 9.70967 48.5 9.59677L42.2097 9.48387 42.2097 29.9355ZM66.0484 29.9355C66.0484 34.629 66.0484 38.4677 66.2742 40.4677 66.4516 41.9032 66.6129 42.8064 68.1129 43.0484 68.8548 43.1613 69.9516 43.2742 70.4032 43.2742 70.6935 43.2742 70.8064 43.5 70.8064 43.6774 70.8064 43.9032 70.5806 44.0806 70 44.0806 67.1935 44.0806 63.9355 43.9032 63.7097 43.9032 63.4193 43.9032 60.2742 44.0806 58.7258 44.0806 58.2097 44.0806 57.9193 43.9677 57.9193 43.6774 57.9193 43.5 58.0322 43.2742 58.3226 43.2742 58.7742 43.2742 59.4032 43.1613 59.871 43.0484 60.8387 42.8226 61.0161 41.9032 61.1935 40.4677 61.4193 38.4677 61.4839 34.629 61.4839 29.9355L61.4839 21.3548C61.4839 13.7903 61.4839 12.4193 61.371 10.871 61.2581 9.20967 60.8548 8.46774 59.7581 8.24193 59.1935 8.12903 58.5484 8.06451 58.2097 8.06451 57.9839 8.06451 57.8064 7.83871 57.8064 7.66129 57.8064 7.37096 58.0322 7.25806 58.6129 7.25806 60.2742 7.25806 63.4193 7.37096 63.7097 7.37096 63.9355 7.37096 67.2097 7.25806 68.7419 7.25806 69.3064 7.25806 69.5484 7.37096 69.5484 7.66129 69.5484 7.83871 69.3226 8.06451 69.1452 8.06451 68.8064 8.06451 68.4516 8.06451 67.8871 8.17742 66.5161 8.46774 66.2258 9.14516 66.1129 10.871 66.0484 12.4193 66.0484 13.7903 66.0484 21.3548ZM77.6935 21.3548C77.6935 13.7903 77.6935 12.4193 77.5806 10.871 77.4677 9.20967 77.1774 8.40322 75.5161 8.17742 75.1129 8.11292 74.2581 8.06451 73.8064 8.06451 73.629 8.06451 73.4032 7.83871 73.4032 7.66129 73.4032 7.37096 73.629 7.25806 74.2097 7.25806 76.5 7.25806 79.6452 7.37096 79.9355 7.37096 80.9032 7.37096 91.8387 7.43546 92.9839 7.37096 93.9516 7.30646 94.8226 7.30646 95.2742 7.14516 95.5645 7.08066 95.7903 6.85484 95.9677 6.85484 96.1935 6.85484 96.3064 7.08064 96.3064 7.30645 96.3064 7.64516 96.0806 8.2258 95.9032 9.59677 95.8548 10.0484 95.7903 12.2258 95.6774 12.8064 95.629 13.0323 95.4516 13.3226 95.2258 13.3226 95 13.3226 94.8226 13.0968 94.8226 12.7581 94.8226 12.3548 94.6452 11.5484 94.371 10.9193 94.0806 10.2903 92.8871 9.48387 90.9355 9.48387L82.6935 9.37096C82.4032 9.37096 82.2903 9.48387 82.2903 9.88709L82.2903 23.1613C82.2903 23.4516 82.2903 23.6129 82.629 23.6129L89.5 23.5484C90.3548 23.5484 91.0968 23.5484 91.7903 23.4839 93 23.371 93.6774 23.1936 94.1452 22.6291 94.371 22.3387 94.5968 22.1129 94.7742 22.1129 95 22.1129 95.0645 22.2903 95.0645 22.5162 95.0645 22.8065 94.7258 23.5968 94.6129 25.2097 94.5 26.1775 94.4355 28.1291 94.4355 28.4678 94.4355 28.9194 94.3226 29.4355 93.9839 29.4355 93.6935 29.4355 93.6452 29.2097 93.6452 28.9678 93.5807 28.4516 93.5322 27.7581 93.3064 27.1936 93.0806 26.5 92.2742 25.871 90.7258 25.6452 89.4677 25.4678 83.5161 25.5323 82.6452 25.5323 82.3548 25.5323 82.3064 25.6452 82.3064 25.9839L82.3064 29.9355C82.3064 34.7419 82.3064 38.5806 82.5322 40.4677 82.7097 41.9032 83 42.8064 84.371 43.0484 85.1129 43.1613 86.2097 43.2742 86.6613 43.2742 86.9516 43.2742 87.0645 43.5 87.0645 43.6774 87.0645 43.9032 86.8387 44.0806 86.2581 44.0806 83.4516 44.0806 80.1935 43.9032 79.9516 43.9032 79.6613 43.9032 76.5161 44.0806 74.9677 44.0806 74.4516 44.0806 74.1613 43.9677 74.1613 43.6774 74.1613 43.5 74.2742 43.2742 74.5645 43.2742 75.0161 43.2742 75.6452 43.0968 76.1129 43.0484 77.0968 42.871 77.1935 41.9032 77.4355 40.4677 77.7258 38.4677 77.7258 34.629 77.7258 29.9355L77.7258 21.3548ZM103.016 21.3548C103.016 13.7903 103.016 12.4193 102.903 10.871 102.79 9.20967 102.5 8.40322 100.839 8.17742 100.435 8.11292 99.5806 8.06451 99.129 8.06451 98.9516 8.06451 98.7258 7.83871 98.7258 7.66129 98.7258 7.37096 98.9516 7.25806 99.5322 7.25806 101.823 7.25806 105.081 7.37096 105.371 7.37096 105.71 7.37096 116.242 7.43546 117.387 7.37096 118.355 7.30646 119.274 7.14516 119.677 7.08064 119.903 7.01614 120.129 6.85484 120.371 6.85484 120.548 6.85484 120.597 7.08064 120.597 7.30645 120.597 7.64516 120.306 8.2258 120.194 9.59677 120.145 10.0484 120.016 12.2258 119.903 12.8064 119.839 13.0323 119.677 13.3226 119.452 13.3226 119.161 13.3226 119.048 13.0968 119.048 12.6935 119.048 12.3548 118.984 11.5484 118.758 10.9677 118.419 10.1613 117.903 9.82258 115.145 9.48387 114.29 9.37096 108.452 9.30645 107.871 9.30645 107.645 9.30645 107.581 9.48387 107.581 9.82258L107.581 23.0484C107.581 23.3871 107.581 23.5645 107.871 23.5645 108.5 23.5645 115.145 23.5645 116.29 23.4516 117.484 23.3387 118.242 23.2742 118.758 22.7581 119.097 22.4193 119.323 22.129 119.5 22.129 119.677 22.129 119.79 22.2419 119.79 22.5322 119.79 22.8226 119.5 23.6129 119.387 25.2258 119.274 26.1935 119.161 28.0322 119.161 28.371 119.161 28.7742 119.048 29.2903 118.71 29.2903 118.484 29.2903 118.371 29.1129 118.371 28.8387 118.371 28.3871 118.371 27.871 118.145 27.2419 117.968 26.5484 117.516 25.9839 115.565 25.7581 114.194 25.5806 108.806 25.5322 107.952 25.5322 107.661 25.5322 107.613 25.7097 107.613 25.871L107.613 29.9355C107.613 31.5968 107.548 37.2581 107.613 38.2419 107.726 41.5 108.645 42.129 113.629 42.129 114.952 42.129 117.355 42.129 118.661 41.6129 119.984 41.0484 120.661 40.1774 120.952 38.2419 121.065 37.6613 121.177 37.5 121.468 37.5 121.758 37.5 121.806 37.9032 121.806 38.2419 121.806 38.5806 121.403 41.9032 121.113 42.9355 120.774 44.1935 120.258 44.1935 118.306 44.1935 114.532 44.1935 111.613 44.0806 109.548 44.0161 107.435 43.9032 106.113 43.9032 105.371 43.9032 105.258 43.9032 104.274 43.9032 103.194 43.9677 102.226 44.0322 101.081 44.0806 100.274 44.0806 99.7581 44.0806 99.4677 43.9677 99.4677 43.6774 99.4677 43.5 99.5806 43.2742 99.871 43.2742 100.323 43.2742 100.952 43.0967 101.419 43.0484 102.387 42.8709 102.5 41.9032 102.742 40.4677 103.032 38.4677 103.032 34.629 103.032 29.9355L103.032 21.3548ZM132.532 30.0484C132.532 37.2097 132.645 40.129 133.565 40.9839 134.371 41.7903 136.306 42.129 140.258 42.129 142.887 42.129 145.129 42.0645 146.323 40.6452 146.952 39.9032 147.355 38.871 147.532 37.9032 147.581 37.5645 147.758 37.2742 148.048 37.2742 148.274 37.2742 148.387 37.5 148.387 38.0161 148.387 38.5322 148.048 41.4516 147.645 42.8871 147.306 44.0322 147.129 44.2097 144.435 44.2097 140.823 44.2097 138.016 44.1452 135.677 44.0322 133.387 43.9838 131.677 43.9193 130.177 43.9193 129.952 43.9193 129.081 43.9193 128.113 43.9838 127.081 44.0322 126 44.0967 125.194 44.0967 124.677 44.0967 124.387 43.9838 124.387 43.6935 124.387 43.5161 124.5 43.2903 124.79 43.2903 125.242 43.2903 125.871 43.1774 126.339 43.0645 127.306 42.8387 127.435 41.9193 127.661 40.4838 127.952 38.4838 127.952 34.6451 127.952 29.9516L127.952 21.371C127.952 13.8064 127.952 12.4355 127.839 10.8871 127.726 9.22579 127.435 8.41934 125.774 8.19353 125.371 8.12903 124.516 8.08063 124.048 8.08063 123.871 8.08063 123.645 7.85482 123.645 7.6774 123.645 7.38708 123.871 7.27417 124.452 7.27417 126.742 7.27417 129.887 7.38708 130.177 7.38708 130.403 7.38708 134.177 7.27417 135.726 7.27417 136.242 7.27417 136.532 7.38708 136.532 7.6774 136.532 7.85482 136.306 8.01611 136.129 8.01611 135.79 8.01611 135.048 8.08061 134.468 8.12901 132.984 8.41934 132.694 9.16127 132.581 10.8709 132.516 12.4193 132.516 13.7903 132.516 21.3548Z" id="path1572" stroke-width="0.16129" fill="#003057"/></svg>